<svg width="20" height="20" viewBox="0 0 20 20" fill="none" xmlns="http://www.w3.org/2000/svg">
<path d="M15.8332 5.00016H9.1665L7.49984 3.3335H3.33317C2.4165 3.3335 1.6665 4.0835 1.6665 5.00016V15.0002C1.6665 15.9168 2.4165 16.6668 3.33317 16.6668H16.2498C16.9582 16.6668 17.4998 16.1252 17.4998 15.4168V6.66683C17.4998 5.75016 16.7498 5.00016 15.8332 5.00016Z" fill="#FFA000"/>
<path d="M17.5835 7.5H6.37516C5.5835 7.5 4.87516 8.08333 4.75016 8.875L3.3335 16.6667H16.5418C17.3335 16.6667 18.0418 16.0833 18.1668 15.2917L19.2085 9.45833C19.4168 8.45833 18.6252 7.5 17.5835 7.5Z" fill="#FFCA28"/>
</svg>
